<svg width="1016" height="187" viewBox="0 0 1016 187" fill="none" xmlns="http://www.w3.org/2000/svg">
<path fill-rule="evenodd" clip-rule="evenodd" d="M700.685 58.3161L710.744 32.5959H734.045H738.119L737.992 32.7232C757.473 33.2325 763.967 38.7076 761.293 45.456C758.619 52.3317 744.868 58.1888 724.495 58.3161H723.731H700.685ZM399.937 110.393L409.996 84.673H433.169H437.116C456.597 85.1823 462.964 90.6574 460.417 97.5331C457.871 104.281 443.992 110.266 423.62 110.393H423.492H422.728H399.937ZM420.436 58.3161L430.623 32.5959H453.796H457.871V32.7232C477.225 33.2325 483.718 38.7076 481.172 45.456C478.498 52.3317 464.746 58.1888 444.374 58.3161H443.61H420.436ZM442.719 146.936H445.52C513.64 146.427 558.714 133.567 567.373 110.775C575.649 89.2568 558.332 77.7973 535.795 71.8129C567.118 66.3378 587.363 57.4248 592.838 43.0368C601.497 20.1178 579.978 1.78259 515.041 0.127326L515.168 0H501.672H443.483H372.052L261.659 68.8843L313.226 146.936H442.719ZM851.568 146.936H865.574H957.887L1015.82 0H909.63L855.388 137.514L796.181 82.5084C836.926 77.1606 863.028 66.4651 872.959 43.0368C882.509 20.4998 860.099 1.78259 795.162 0.127326V0H781.665H617.412L559.478 146.936H665.67L687.315 92.1853L746.141 146.936H851.568Z" fill="black"/>
<path fill-rule="evenodd" clip-rule="evenodd" d="M927.837 180.423L931.402 177.877C931.784 179.405 932.294 180.423 932.93 181.187C933.567 181.824 934.458 182.079 935.604 182.079C937.005 182.079 938.405 181.697 939.424 180.805C940.57 180.041 941.334 178.896 941.589 177.622C941.843 176.731 941.843 175.84 941.589 175.203C941.334 174.566 940.697 173.93 939.679 173.166C939.424 173.038 939.169 172.784 938.787 172.529C937.005 171.383 935.859 170.492 935.477 169.601C935.095 169.091 934.968 168.455 934.84 167.691C934.84 166.927 934.84 166.163 935.095 165.271C935.732 162.852 937.005 160.942 938.915 159.414C940.825 157.886 942.989 157.122 945.408 157.122C947.064 157.122 948.464 157.504 949.483 158.141C950.629 158.778 951.393 159.796 951.775 161.197L948.592 163.616C948.21 162.598 947.828 161.834 947.191 161.452C946.554 160.942 945.79 160.688 944.899 160.688C943.626 160.688 942.353 161.07 941.461 161.834C940.443 162.598 939.806 163.616 939.424 164.889C939.042 166.417 939.933 167.818 941.971 168.964C942.48 169.219 942.862 169.473 943.117 169.728C944.644 170.747 945.663 171.892 946.172 173.038C946.682 174.184 946.682 175.585 946.172 177.24C945.536 179.787 944.135 181.824 942.098 183.352C940.061 184.88 937.641 185.644 934.84 185.644C932.93 185.644 931.402 185.262 930.256 184.243C928.856 183.479 928.219 182.206 927.837 180.423ZM844.692 158.014L838.58 173.802C838.326 174.312 838.198 174.821 838.071 175.33C837.816 175.712 837.689 176.222 837.689 176.604C837.307 178.259 837.435 179.659 838.199 180.551C838.962 181.442 840.236 181.951 842.018 181.951C843.419 181.951 844.565 181.697 845.711 181.315C846.857 180.805 847.875 180.169 848.767 179.277C850.04 178.132 851.186 175.84 852.332 172.656C852.459 172.402 852.587 172.02 852.587 171.892L857.934 158.141H862.136L856.152 173.42C855.133 175.967 854.242 177.877 853.605 179.023C852.841 180.169 852.077 181.187 851.059 182.079C849.658 183.352 848.13 184.371 846.22 185.007C844.438 185.644 842.528 186.026 840.236 186.026C837.18 186.026 835.015 185.262 833.869 183.734C832.723 182.206 832.469 180.041 833.233 176.986C833.36 176.349 833.615 175.458 834.124 174.312C834.506 173.166 835.015 171.892 835.525 170.492L840.363 158.141H844.692V158.014ZM739.01 185.007L749.578 158.014H764.73L763.202 161.834H752.252L749.578 168.709H760.529L759.128 172.529H748.178L744.867 181.315H755.817L754.289 185.135H739.01V185.007ZM638.294 185.007L649.244 156.868L659.558 173.802C659.94 174.439 660.194 174.948 660.576 175.585C660.831 176.094 661.086 176.731 661.34 177.24C661.595 176.731 661.722 176.094 661.85 175.458C662.104 174.821 662.359 174.057 662.741 173.038L668.725 158.014H672.672L661.722 186.153L651.281 169.219C650.899 168.455 650.517 167.818 650.135 167.309C649.881 166.799 649.753 166.29 649.499 165.781C649.244 166.672 648.862 167.945 648.098 169.601C647.971 169.728 647.971 169.855 647.971 169.983L642.114 185.007H638.294ZM551.074 185.007H546.873L557.441 158.014H563.043C565.208 158.014 566.736 158.141 567.627 158.396C568.518 158.65 569.282 159.032 569.919 159.669C570.556 160.306 570.938 161.07 571.065 162.088C571.192 162.98 571.192 164.125 570.81 165.271C570.556 166.672 569.919 167.945 569.155 168.964C568.391 169.983 567.372 171.001 566.226 171.765C565.208 172.402 564.189 172.911 563.043 173.166C561.897 173.42 560.115 173.548 557.823 173.548H556.677H555.658L551.074 185.007ZM557.186 169.601H558.587C561.261 169.601 563.17 169.346 564.316 168.582C565.462 167.945 566.226 166.927 566.608 165.399C566.863 164.125 566.736 163.107 566.099 162.598C565.462 162.088 563.934 161.834 561.643 161.834H560.242L557.186 169.601Z" fill="black"/>
<path fill-rule="evenodd" clip-rule="evenodd" d="M176.604 146.936H282.922L231.355 68.8843L341.62 0H235.429L200.287 21.9004L185.899 0H79.5798L125.163 68.8843L0 146.936H106.319L156.104 115.868L176.604 146.936Z" fill="#E3151A"/>
</svg>
