<svg width="134" height="18" viewBox="0 0 134 18" fill="none" xmlns="http://www.w3.org/2000/svg">
<g clip-path="url(#clip0_68_296)">
<path fill-rule="evenodd" clip-rule="evenodd" d="M92.341 7.14384L93.6667 3.99308H96.7375H97.2746L97.2576 4.00867C99.8253 4.07106 100.681 4.74178 100.328 5.56844C99.9759 6.41074 98.1639 7.12825 95.4792 7.14384H95.3785H92.341ZM52.7069 13.5234L54.0325 10.3726H57.0863H57.6064C60.1741 10.435 61.0129 11.1057 60.6772 11.948C60.3418 12.7747 58.5126 13.5078 55.828 13.5234H55.8109H55.7102H52.7069ZM55.4082 7.14384L56.7509 3.99308H59.8046H60.3418V4.00867C62.8924 4.07106 63.7479 4.74178 63.4125 5.56844C63.0601 6.41074 61.2476 7.12825 58.563 7.14384H58.4623H55.4082ZM58.3449 18H58.714C67.6912 17.9376 73.6314 16.3622 74.7723 13.5702C75.8633 10.9341 73.581 9.53032 70.611 8.79721C74.739 8.12653 77.407 7.03465 78.1285 5.27209C79.2695 2.46447 76.4338 0.218371 67.876 0.0155977L67.8926 0H66.1138H58.4456H49.0319L34.4836 8.43847L41.2797 18H58.3449ZM112.226 18H114.072H126.237L133.872 0H119.877L112.729 16.8458L104.926 10.1075C110.296 9.45234 113.736 8.14212 115.045 5.27209C116.303 2.51127 113.35 0.218371 104.792 0.0155977V0H103.013H81.367L73.7321 18H87.7266L90.5793 11.2929L98.3315 18H112.226Z" fill="white"/>
<path fill-rule="evenodd" clip-rule="evenodd" d="M23.2739 18H37.2852L30.4893 8.43847L45.0209 0H31.0263L26.395 2.68284L24.4988 0H10.4875L16.4948 8.43847L0 18H14.0113L20.5723 14.1941L23.2739 18Z" fill="#E3151A"/>
</g>
<defs>
<clipPath id="clip0_68_296">
<rect width="134" height="18" fill="white"/>
</clipPath>
</defs>
</svg>
